<svg width="316" height="112" viewBox="0 0 316 112" fill="none" xmlns="http://www.w3.org/2000/svg"><path d="M134 108h-24v4h24v-4z" fill="url(#a)"/><rect x="130" y="11" width="55" height="101" rx="6" fill="url(#b)"/><rect x="151" y="16" width="14" height="2" rx="1" fill="#F1F3F4"/><path fill="#F8F9FA" d="M130 21h55v80h-55z"/><rect x="195" y="43" width="26" height="74" rx="4" transform="rotate(90 195 43)" fill="url(#c)"/><circle cx="133.5" cy="53.5" r="2.5" fill="#fff"/><circle cx="149.5" cy="53.5" r="2.5" fill="#fff"/><circle cx="165.5" cy="53.5" r="2.5" fill="#fff"/><circle cx="181.5" cy="53.5" r="2.5" fill="#fff"/><path stroke="#fff" stroke-linecap="round" d="M130.5 60.5h6M146.5 60.5h6M162.5 60.5h6M178.5 60.5h6"/><circle cx="222" cy="51" r="17" fill="#fff" stroke="#E8EAED" stroke-width="2"/><path d="M225.584 53.203l-2.333 2.332a14.375 14.375 0 0 1-5.787-5.786l2.333-2.333a.87.87 0 0 0 .24-.801l-.578-2.903a.888.888 0 0 0-.873-.712h-3.694c-.499 0-.917.418-.891.917.152 2.59.926 5.012 2.164 7.131a16.09 16.09 0 0 0 5.787 5.787A15.952 15.952 0 0 0 229.083 59c.499.026.917-.392.917-.89v-3.695a.889.889 0 0 0-.712-.873l-2.903-.578a.882.882 0 0 0-.801.24z" fill="#E8EAED"/><circle cx="268" cy="51" r="17" fill="#fff" stroke="#E8EAED" stroke-width="2"/><path d="M268.09 47.5c-.98-1.5-2.66-2.5-4.59-2.5-3.04 0-5.5 2.46-5.5 5.5s2.46 5.5 5.5 5.5c1.93 0 3.61-1 4.59-2.5H270v3h6v-3h2v-6h-9.91zm7.91 4h-2v3h-2v-3h-5.16a3.495 3.495 0 0 1-3.34 2.5c-1.93 0-3.5-1.57-3.5-3.5s1.57-3.5 3.5-3.5c1.58 0 2.9 1.06 3.34 2.5H276v2z" fill="#E8EAED"/><path d="M263.5 52a1.5 1.5 0 1 0 0-3 1.5 1.5 0 0 0 0 3z" fill="#E8EAED"/><circle cx="94" cy="51" r="17" fill="#fff" stroke="#E8EAED" stroke-width="2"/><path d="M94 41c-5.52 0-10 4.48-10 10s4.48 10 10 10 10-4.48 10-10-4.48-10-10-10zm-4.93 16.28c.43-.9 3.05-1.78 4.93-1.78s4.51.88 4.93 1.78A7.893 7.893 0 0 1 94 59c-1.86 0-3.57-.64-4.93-1.72zm11.29-1.45c-1.43-1.74-4.9-2.33-6.36-2.33s-4.93.59-6.36 2.33A7.95 7.95 0 0 1 86 51c0-4.41 3.59-8 8-8s8 3.59 8 8c0 1.82-.62 3.49-1.64 4.83zM94 45c-1.94 0-3.5 1.56-3.5 3.5S92.06 52 94 52s3.5-1.56 3.5-3.5S95.94 45 94 45zm0 5c-.83 0-1.5-.67-1.5-1.5S93.17 47 94 47s1.5.67 1.5 1.5S94.83 50 94 50z" fill="#E8EAED"/><circle cx="48" cy="51" r="17" fill="#fff" stroke="#E8EAED" stroke-width="2"/><path d="M54 47h-1v-2c0-2.76-2.24-5-5-5s-5 2.24-5 5v2h-1c-1.1 0-2 .9-2 2v10c0 1.1.9 2 2 2h12c1.1 0 2-.9 2-2V49c0-1.1-.9-2-2-2zm-9-2c0-1.66 1.34-3 3-3s3 1.34 3 3v2h-6v-2zm9 14H42V49h12v10zm-6-3c1.1 0 2-.9 2-2s-.9-2-2-2-2 .9-2 2 .9 2 2 2z" fill="#E8EAED"/><defs><linearGradient id="a" x1="110" y1="110" x2="134" y2="110" gradientUnits="userSpaceOnUse"><stop stop-color="#BDC1C6" stop-opacity="0"/><stop offset="1" stop-color="#BDC1C6"/></linearGradient><linearGradient id="b" x1="183" y1="12.5" x2="135.5" y2="111" gradientUnits="userSpaceOnUse"><stop stop-color="#DADCE0"/><stop offset="1" stop-color="#BDC1C6"/></linearGradient><linearGradient id="c" x1="198.792" y1="45.891" x2="219.417" y2="109.345" gradientUnits="userSpaceOnUse"><stop stop-color="#4285F4"/><stop offset="1" stop-color="#1967D2"/></linearGradient></defs></svg>